<svg xmlns="http://www.w3.org/2000/svg" viewBox="0 0 512 512" role="img" aria-label="Savory">
  <defs>
    <linearGradient id="bg" x1="58" y1="28" x2="455" y2="486" gradientUnits="userSpaceOnUse">
      <stop stop-color="#ff7a5f"/>
      <stop offset="1" stop-color="#ff453b"/>
    </linearGradient>
    <filter id="softShadow" x="-20%" y="-20%" width="140%" height="150%" color-interpolation-filters="sRGB">
      <feDropShadow dx="0" dy="10" stdDeviation="8" flood-color="#b62722" flood-opacity=".28"/>
    </filter>
  </defs>
  <rect width="512" height="512" rx="70" fill="url(#bg)"/>
  <g filter="url(#softShadow)" fill="#fff">
    <path d="M62 204c23-19 65-28 111-38 54-12 78-7 109 16 15 11 31 11 46-1 29-23 56-25 108-12 31 8 55 17 74 32-5 26-17 59-39 88-9-10-21-20-36-29 12-15 20-31 24-45-37-16-79-22-121-8-22 7-43 18-68 18-25 1-46-10-69-17-37-12-75-10-113 6 13 42 44 71 86 87 26 10 57 15 88 14 4 16 13 31 25 44-64 6-129-4-175-33-43-28-73-67-90-117 9-1 27-1 40-1z"/>
    <path d="M207 311c18-20 46-30 79-28 45 2 92 30 122 73 9 13 16 26 20 39-23 22-62 22-97 5-33-16-47-44-54-70-23-1-47-3-70-19z"/>
    <path d="M318 275c49 4 87 24 118 56 27 28 38 62 32 96-13-24-31-45-53-63-28-23-59-37-93-42 4-15 3-31-4-47z"/>
  </g>
</svg>
